<svg width="383" height="305" viewBox="0 0 383 305" fill="none" xmlns="http://www.w3.org/2000/svg">
<path d="M280.702 39.74C313.18 52.6819 347.613 71.7893 366.66 101.117C385.708 130.444 389.371 169.992 370.873 197.154C352.374 224.315 311.715 239.145 277.344 254.087C242.973 268.973 214.951 284.081 178.504 294.579C142.057 305.132 97.2461 311.131 65.6832 295.357C34.1203 279.582 15.8663 242.089 6.76985 204.652C-2.32662 167.271 -2.32661 129.945 7.1972 93.0629C16.721 56.1812 35.7687 19.6884 67.3316 6.46875C98.8945 -6.80642 142.912 3.13607 180.213 11.5233C217.576 19.9106 248.162 26.7425 280.702 39.74Z" fill="#FCA61F"/>
</svg>
